
        <svg xmlns="http://www.w3.org/2000/svg" xmlns:xlink="http://www.w3.org/1999/xlink" version="1.1" width="2716.3849875488922" 
        height="3178.961895982216" viewBox="0 0 2716.3849875488922 3178.961895982216">
			
			<g transform="scale(8.948094799110807) translate(10, 10)">
				<defs id="SvgjsDefs1350"></defs><g id="SvgjsG1351" featureKey="symbolContainer" transform="matrix(5.124,0,0,5.124,20,20)" fill="#6639a6"><circle cx="25" cy="25" r="25"></circle></g><g id="SvgjsG1352" featureKey="monogramFeature-0" transform="matrix(4.060720862277826,0,0,4.060720862277826,74.81783741316653,-3.910801316351808)" fill="#ffffff"><path d="M10.38 46.92 l0 -23.28 l-1.44 -0.42 c-0.48 -0.18 -0.84 -0.66 -0.84 -1.14 l0 -5.94 c0 -0.42 0.42 -1.14 0.9 -1.14 l10.98 0 c0.54 0 0.96 0.72 0.96 1.2 l0 5.7 c0 1.38 -1.32 1.44 -2.34 1.74 l-0.06 0 l0 23.04 l7.32 0 l0.48 -1.98 c0.06 -0.36 0.48 -0.9 0.9 -0.9 l4.68 0 c0.48 0 0.96 0.66 0.96 1.14 l0 9.6 c0 0.42 -0.48 1.08 -0.96 1.08 l-22.86 0 c-0.48 0 -0.96 -0.72 -0.96 -1.2 l0 -5.88 c0 -0.48 0.36 -0.96 0.78 -1.08 z M3 20.82 l1.92 -1.44 l0.96 0 l-2.88 2.16 l0 -0.72 z M3 23.22 l0 -0.72 l4.02 -3.06 l0.06 0 l0 0.66 z M3 24.18 l4.08 -3.12 l0 0.72 l-4.08 3.12 l0 -0.72 z M3 25.799999999999997 l4.08 -3 l0 -0.06 c0.06 0.24 0.06 0.48 0.12 0.66 l-4.2 3.12 l0 -0.72 z M3.3 27.299999999999997 l4.32 -3.24 c0.18 0.12 0.36 0.18 0.6 0.24 l-4.38 3.3 c-0.18 0 -0.42 -0.18 -0.54 -0.3 z M5.34 28.02 l-0.6 -0.18 l4.38 -3.24 c0.06 0 0.3 0.06 0.3 0.06 l0 0.42 l-4.08 3.06 l0 -0.12 z M5.34 29.1 l4.08 -3.06 l0 0.66 l-4.08 3.06 l0 -0.66 z M5.34 31.44 l0 -0.72 l4.08 -3.06 l0 0.72 z M5.34 32.4 l4.08 -3.06 l0 0.72 l-4.08 3.06 l0 -0.72 z M5.34 34.08 l4.08 -3.06 l0 0.72 l-4.08 3.06 l0 -0.72 z M5.34 36.480000000000004 l0 -0.72 l4.08 -3.06 l0 0.72 z M5.34 38.16 l0 -0.72 l4.08 -3.06 l0 0.72 z M5.34 39.120000000000005 l4.08 -3.12 l0 0.78 l-4.08 3.06 l0 -0.72 z M5.34 41.519999999999996 l0 -0.72 l4.08 -3.12 l0 0.78 z M5.34 43.2 l0 -0.72 l4.08 -3.12 l0 0.72 z M5.34 44.16 l4.08 -3.12 l0 0.72 l-4.08 3.12 l0 -0.72 z M5.34 45.78 l4.08 -3.06 l0 0.72 l-4.08 3.12 l0 -0.78 z M5.34 48.24 l0 -0.78 l4.08 -3.06 l0 0.72 z M5.34 49.14 l4.08 -3.06 l0 0.66 l-4.08 3.12 l0 -0.72 z M5.34 51.36 l0 -0.54 l1.8 -1.38 c0 0.3 0 0.72 -0.06 0.72 l-4.08 3.06 l0 -0.12 c0 -0.24 0 -0.54 0.18 -0.72 l0.84 -0.6 z M3 54.9 l0 -0.72 l4.08 -3.06 l0 0.72 z M3 55.86 l4.08 -3.06 l0 0.72 l-4.08 3.06 l0 -0.72 z M3 57.54 l4.08 -3.06 l0 0.72 l-4.08 3.06 l0 -0.72 z M3.06 59.16 l4.14 -3.12 l0.06 0 c0.12 0.18 0.24 0.3 0.42 0.42 l-4.32 3.24 c-0.06 -0.06 -0.3 -0.48 -0.3 -0.54 z M4.2 60 l4.5 -3.36 l0.96 0 l-4.44 3.36 l-1.02 0 z M7.44 60 l-0.96 0 l4.44 -3.36 l0.96 0 z M8.7 60 l4.44 -3.36 l1.02 0 l-4.5 3.36 l-0.96 0 z M10.92 60 l4.5 -3.36 l0.96 0 l-4.44 3.36 l-1.02 0 z M13.2 60 l4.44 -3.36 l0.96 0 l-4.44 3.36 l-0.96 0 z M16.38 60 l-0.96 0 l4.44 -3.36 l1.02 0 z M17.64 60 l4.5 -3.36 l0.84 0 l-4.44 3.36 l-0.9 0 z M19.8 60 l4.44 -3.36 l1.02 0 l-4.5 3.36 l-0.96 0 z M22.02 60 l4.5 -3.36 l0.96 0 l-4.44 3.36 l-1.02 0 z M25.26 60 l-0.96 0 l3.48 -2.64 l0 0.72 z M26.52 60 l1.26 -0.96 c0 0.48 -0.6 0.96 -1.08 0.96 l-0.18 0 z"></path></g><g id="SvgjsG1353" featureKey="nameFeature-0" transform="matrix(1.4023890778746146,0,0,1.4023890778746146,10.756178277854083,279.1713364151944)" fill="#521262"><path d="M1.6 40 l0 -28 l5.04 0 l0 22.96 l7.84 0 l0 5.04 l-12.88 0 z M25.292 40 l-3.72 -3.72 l0 -24.28 l5.04 0 l0 22.2 l0.76 0.76 l4.64 0 l0.76 -0.76 l0 -22.2 l5.04 0 l0 24.28 l-3.72 3.72 l-8.8 0 z M44.904 40 l0 -28 l5.36 0 l5.84 14.96 l0 -14.96 l5.04 0 l0 28 l-5.36 0 l-5.84 -14.96 l0 14.96 l-5.04 0 z M67.43599999999999 40 l5.64 -28 l6.96 0 l5.64 28 l-5.12 0 l-1.24 -6.16 l-5.48 0 l-1.24 6.16 l-5.16 0 z M74.836 28.8 l3.44 0 l-1.72 -8.56 z M91.96799999999999 40 l0 -28 l11.96 0 l3.72 3.72 l0 10.76 l-3.72 3.72 l-6.92 0 l0 9.8 l-5.04 0 z M97.008 25.16 l4.84 0 l0.76 -0.76 l0 -6.6 l-0.76 -0.76 l-4.84 0 l0 8.12 z M118.45999999999998 40 l-3.72 -3.72 l0 -24.28 l5.04 0 l0 22.2 l0.76 0.76 l4.64 0 l0.76 -0.76 l0 -22.2 l5.04 0 l0 24.28 l-3.72 3.72 l-8.8 0 z M138.07199999999997 40 l0 -28 l5.04 0 l0 22.96 l7.84 0 l0 5.04 l-12.88 0 z M161.76399999999998 40 l-3.72 -3.72 l0 -5.24 l5.04 0 l0 3.16 l0.76 0.76 l4.08 0 l0.76 -0.76 l0 -4.92 l-0.76 -0.76 l-6.16 0 l-3.72 -3.72 l0 -9.08 l3.72 -3.72 l8.24 0 l3.72 3.72 l0 5.24 l-5.04 0 l0 -3.16 l-0.76 -0.76 l-4.08 0 l-0.76 0.76 l0 4.92 l0.76 0.76 l6.16 0 l3.72 3.72 l0 9.08 l-3.72 3.72 l-8.24 0 z M180.81599999999997 40 l0 -28 l13.72 0 l0 5.04 l-8.68 0 l0 6.44 l6.44 0 l0 5.04 l-6.44 0 l0 6.44 l8.68 0 l0 5.04 l-13.72 0 z"></path></g>
			</g>
		</svg>
	